<svg width="40" height="40" viewBox="0 0 40 40" fill="none" xmlns="http://www.w3.org/2000/svg">
<path fill-rule="evenodd" clip-rule="evenodd" d="M33.0761 9.32397C33.0761 7.99848 32.0015 6.92393 30.6761 6.92393C29.3506 6.92393 28.2761 7.99848 28.2761 9.32397C28.2761 10.6495 29.3506 11.7239 30.6761 11.7239C32.0015 11.7239 33.0761 10.6495 33.0761 9.32397ZM20 26.6667C16.3181 26.6667 13.3333 23.6819 13.3333 20C13.3333 16.3181 16.3181 13.3333 20 13.3333C23.6819 13.3333 26.6667 16.3181 26.6667 20C26.6667 23.6819 23.6819 26.6667 20 26.6667ZM20 9.72974C14.3279 9.72974 9.72974 14.3279 9.72974 20C9.72974 25.6721 14.3279 30.2703 20 30.2703C25.6721 30.2703 30.2703 25.6721 30.2703 20C30.2703 14.3279 25.6721 9.72974 20 9.72974ZM20 0C14.5683 0 13.8872 0.0230231 11.754 0.120355C9.62526 0.21745 8.17139 0.555572 6.89924 1.05001C5.58406 1.56105 4.46871 2.24491 3.35677 3.35677C2.24491 4.46871 1.56105 5.58406 1.05001 6.89924C0.555572 8.17139 0.21745 9.62526 0.120355 11.754C0.0230231 13.8872 0 14.5683 0 20C0 25.4317 0.0230231 26.1128 0.120355 28.246C0.21745 30.3747 0.555572 31.8286 1.05001 33.1008C1.56105 34.4159 2.24491 35.5313 3.35677 36.6432C4.46871 37.7551 5.58406 38.439 6.89924 38.9501C8.17139 39.4444 9.62526 39.7826 11.754 39.8796C13.8872 39.977 14.5683 40 20 40C25.4317 40 26.1128 39.977 28.246 39.8796C30.3747 39.7826 31.8286 39.4444 33.1008 38.9501C34.4159 38.439 35.5313 37.7551 36.6432 36.6432C37.7552 35.5313 38.439 34.4159 38.9501 33.1008C39.4444 31.8286 39.7826 30.3747 39.8796 28.246C39.977 26.1128 40 25.4317 40 20C40 14.5683 39.977 13.8872 39.8796 11.754C39.7826 9.62526 39.4444 8.17139 38.9501 6.89924C38.439 5.58406 37.7552 4.46871 36.6432 3.35677C35.5313 2.24491 34.4159 1.56105 33.1008 1.05001C31.8286 0.555572 30.3747 0.21745 28.246 0.120355C26.1128 0.0230231 25.4317 0 20 0ZM20 3.6036C25.3402 3.6036 25.9728 3.624 28.0817 3.72022C30.0317 3.80914 31.0907 4.13496 31.7954 4.40885C32.729 4.77166 33.3953 5.20505 34.095 5.90488C34.7949 6.60478 35.2283 7.27102 35.5911 8.20457C35.865 8.90932 36.1909 9.9683 36.2798 11.9183C36.376 14.0272 36.3964 14.6598 36.3964 20C36.3964 25.3402 36.376 25.9727 36.2798 28.0817C36.1909 30.0317 35.865 31.0907 35.5911 31.7954C35.2283 32.729 34.7949 33.3952 34.095 34.095C33.3953 34.7949 32.729 35.2283 31.7954 35.5911C31.0907 35.865 30.0317 36.1909 28.0817 36.2798C25.9731 36.376 25.3406 36.3964 20 36.3964C14.6594 36.3964 14.027 36.376 11.9183 36.2798C9.9683 36.1909 8.90932 35.865 8.20457 35.5911C7.27102 35.2283 6.60478 34.7949 5.90496 34.095C5.20513 33.3952 4.77166 32.729 4.40885 31.7954C4.13496 31.0907 3.80914 30.0317 3.72022 28.0817C3.624 25.9727 3.6036 25.3402 3.6036 20C3.6036 14.6598 3.624 14.0272 3.72022 11.9183C3.80914 9.9683 4.13496 8.90932 4.40885 8.20457C4.77166 7.27102 5.20505 6.60478 5.90496 5.90496C6.60478 5.20505 7.27102 4.77166 8.20457 4.40885C8.90932 4.13496 9.9683 3.80914 11.9183 3.72022C14.0272 3.624 14.6598 3.6036 20 3.6036Z" fill="#010202"/>
</svg>
