<svg width="187" height="52" viewBox="0 0 187 52" fill="none" xmlns="http://www.w3.org/2000/svg">
<path d="M32.5136 28.1283L21.2104 19.3143L9.94395 28.1134V32.812L21.2104 23.998L28.8342 29.9409V35.6869C28.9059 40.2028 26.5561 44.4065 22.6878 46.6825C18.8195 48.9585 14.0345 48.9528 10.1716 46.6675C6.30863 44.3822 3.96875 40.1729 4.0511 35.6571V16.5843C3.97389 12.0683 6.31868 7.86162 10.1844 5.58084C14.0501 3.30007 18.8352 3.30007 22.701 5.58084C26.5667 7.86162 28.9114 12.0683 28.8342 16.5843H32.5173C32.6051 10.7342 29.5606 5.29015 24.551 2.33923C19.5414 -0.61169 13.3439 -0.61169 8.3343 2.33923C3.3247 5.29015 0.280251 10.7342 0.36806 16.5843V35.6869C0.331447 44.6389 7.49779 51.9259 16.3745 51.9629C25.2513 51.9998 32.477 44.7726 32.5136 35.8206V28.1283Z" fill="white"/>
<path d="M62.789 20.1623L60.5929 22.2815C59.9867 21.5645 59.2283 20.9915 58.373 20.604C57.5177 20.2166 56.5869 20.0244 55.6481 20.0415C51.8965 20.0415 49.1148 22.772 49.1148 26.7505C49.1148 30.7291 51.8818 33.4705 55.509 33.4705C58.8836 33.4705 60.8455 31.7429 61.3213 28.6867H56.4387V25.905H64.5568C64.5568 26.1576 64.5824 26.3662 64.5824 26.6371C64.5824 31.9333 61.2225 36.3181 55.5163 36.3181C50.7582 36.3181 46 32.9215 46 26.7688C45.9927 21.2018 50.0627 17.183 55.6481 17.183C58.6018 17.183 61.1053 18.2774 62.789 20.1623Z" fill="white"/>
<path d="M72.9123 36.2998C69.9513 36.2998 67.0562 34.6418 67.0562 30.623V23.3503H69.8232V30.3741C69.8232 32.808 71.1665 33.7048 72.905 33.7048C74.6436 33.7048 76.0088 32.808 76.0088 30.3741V23.3503H78.7759V30.623C78.7649 34.6418 75.8661 36.2998 72.9123 36.2998Z" fill="white"/>
<path d="M93.2353 29.6494C93.2375 29.9917 93.2204 30.3339 93.184 30.6742H83.8544C84.2204 32.9398 85.8309 33.8915 87.6097 33.8915C88.944 33.8671 90.2321 33.3983 91.2698 32.5592L92.6387 34.521C91.0978 35.8387 89.3446 36.2998 87.4486 36.2998C83.6531 36.2998 80.9922 33.6645 80.9922 29.6604C80.9922 25.6562 83.5543 23.0209 87.2766 23.0209C90.783 23.0209 93.2353 25.7074 93.2353 29.6494ZM83.869 28.5806H90.417C90.1132 26.6188 88.9529 25.4732 87.2144 25.4732C85.2526 25.4732 84.1436 26.7359 83.869 28.5806Z" fill="white"/>
<path d="M100.293 25.4183C98.7777 25.4183 97.9103 26.0222 97.9103 26.9189C97.9103 27.8157 98.8326 28.0536 99.9892 28.2219L101.296 28.4196C104.048 28.8295 105.688 29.9898 105.688 32.1493C105.688 34.5723 103.58 36.2742 99.9453 36.2742C98.6533 36.2742 96.362 36.0217 94.5283 34.6528L95.8094 32.5848C96.7024 33.2839 97.9286 33.8768 99.9709 33.8768C101.867 33.8768 102.844 33.2839 102.844 32.3323C102.844 31.6002 102.171 31.15 100.648 30.9378L99.3304 30.7657C96.5267 30.3997 95.0481 29.1077 95.0481 27.0653C95.0481 24.5728 97.0538 23.0392 100.267 23.0392C102.066 22.9937 103.842 23.4541 105.392 24.3678L104.191 26.5163C103.003 25.8323 101.663 25.4549 100.293 25.4183Z" fill="white"/>
<path d="M111.637 25.8538V31.344C111.637 33.0313 112.53 33.7011 113.639 33.7011C114.555 33.6534 115.44 33.3573 116.201 32.8447L117.299 35.0407C116.167 35.8463 114.815 36.2834 113.426 36.2925C110.568 36.2925 108.895 34.7516 108.895 31.3916V25.8538H106.377V23.3503H108.895V19.5291H111.662V23.3503H116.497V25.8538H111.637Z" fill="white"/>
<path d="M125.389 23.0209C128.394 23.0209 130.513 25.0889 130.513 28.0389V35.9704H127.746V28.9503C127.746 26.8274 126.648 25.6562 124.818 25.6562C123.039 25.6562 121.549 26.8311 121.549 28.9906V35.9704H118.782V17H121.549V24.851C121.991 24.2557 122.572 23.7778 123.242 23.4588C123.911 23.1398 124.648 22.9894 125.389 23.0209Z" fill="white"/>
<path d="M146.329 29.6604C146.329 33.4413 143.43 36.2998 139.532 36.2998C135.634 36.2998 132.739 33.4413 132.739 29.6604C132.739 25.8795 135.623 23.0209 139.525 23.0209C143.426 23.0209 146.329 25.8795 146.329 29.6604ZM135.579 29.6604C135.579 32.0468 137.277 33.6865 139.532 33.6865C141.787 33.6865 143.496 32.0285 143.496 29.6604C143.496 27.2923 141.783 25.6159 139.532 25.6159C137.281 25.6159 135.579 27.2776 135.579 29.6604Z" fill="white"/>
<path d="M154.401 36.2998C151.436 36.2998 148.545 34.6418 148.545 30.623V23.3503H151.312V30.3741C151.312 32.808 152.655 33.7048 154.394 33.7048C156.132 33.7048 157.476 32.808 157.476 30.3741V23.3503H160.243V30.623C160.25 34.6418 157.351 36.2998 154.401 36.2998Z" fill="white"/>
<path d="M168.079 25.4183C166.564 25.4183 165.693 26.0222 165.693 26.919C165.693 27.8157 166.615 28.0536 167.776 28.222L169.079 28.4196C171.835 28.8295 173.471 29.9898 173.471 32.1493C173.471 34.5723 171.363 36.2742 167.724 36.2742C166.436 36.2742 164.141 36.0217 162.311 34.6528L163.588 32.5848C164.485 33.2839 165.711 33.8768 167.754 33.8768C169.65 33.8768 170.623 33.2839 170.623 32.3323C170.623 31.6002 169.953 31.1501 168.427 30.9378L167.109 30.7657C164.302 30.3997 162.827 29.1077 162.827 27.0654C162.827 24.5728 164.829 23.0392 168.043 23.0392C169.842 22.9931 171.617 23.4535 173.167 24.3678L171.977 26.5163C170.79 25.8317 169.45 25.4543 168.079 25.4183Z" fill="white"/>
<path d="M187 29.6494C187.002 29.9917 186.985 30.3339 186.949 30.6742H177.619C177.985 32.9398 179.596 33.8915 181.374 33.8915C182.709 33.8671 183.997 33.3983 185.034 32.5592L186.403 34.521C184.862 35.8387 183.109 36.2998 181.213 36.2998C177.418 36.2998 174.757 33.6645 174.757 29.6604C174.757 25.6562 177.319 23.0209 181.041 23.0209C184.548 23.0209 187 25.7074 187 29.6494ZM177.634 28.5806H184.182C183.878 26.6188 182.718 25.4732 180.979 25.4732C179.017 25.4732 177.908 26.7359 177.634 28.5806Z" fill="white"/>
</svg>
